<mxfile host="app.diagrams.net" modified="2023-06-01T07:01:02.235Z" agent="Mozilla/5.0 (Windows NT 10.0; Win64; x64) AppleWebKit/537.36 (KHTML, like Gecko) Chrome/113.0.0.0 Safari/537.36" etag="100MpdCTTnMiKUkJpuOY" version="21.3.6" type="device">
  <diagram name="Page-1" id="42789a77-a242-8287-6e28-9cd8cfd52e62">
    <mxGraphModel dx="1674" dy="768" grid="0" gridSize="10" guides="1" tooltips="1" connect="1" arrows="1" fold="1" page="1" pageScale="1" pageWidth="1100" pageHeight="850" background="none" math="0" shadow="0">
      <root>
        <mxCell id="0" />
        <mxCell id="1" parent="0" />
        <mxCell id="9-PVz-duP1QArUiXDuFB-10" value="Colegio Rural" style="ellipse;whiteSpace=wrap;html=1;rounded=0;shadow=1;comic=0;labelBackgroundColor=none;strokeWidth=1;fontFamily=Verdana;fontSize=12;align=center;" parent="1" vertex="1">
          <mxGeometry x="128" y="116" width="75" height="50" as="geometry" />
        </mxCell>
        <mxCell id="9-PVz-duP1QArUiXDuFB-38" value="" style="endArrow=classic;html=1;rounded=0;exitX=0.5;exitY=1;exitDx=0;exitDy=0;entryX=0.5;entryY=0;entryDx=0;entryDy=0;" parent="1" source="9-PVz-duP1QArUiXDuFB-10" target="0iVfeRO4rjy1ahAFwruD-13" edge="1">
          <mxGeometry width="50" height="50" relative="1" as="geometry">
            <mxPoint x="499" y="-13" as="sourcePoint" />
            <mxPoint x="227" y="350" as="targetPoint" />
          </mxGeometry>
        </mxCell>
        <mxCell id="0iVfeRO4rjy1ahAFwruD-1" value="Colegio Bilingue" style="ellipse;whiteSpace=wrap;html=1;rounded=0;shadow=1;comic=0;labelBackgroundColor=none;strokeWidth=1;fontFamily=Verdana;fontSize=12;align=center;" parent="1" vertex="1">
          <mxGeometry x="364" y="502" width="75" height="50" as="geometry" />
        </mxCell>
        <mxCell id="0iVfeRO4rjy1ahAFwruD-3" value="Colegio Privado" style="ellipse;whiteSpace=wrap;html=1;rounded=0;shadow=1;comic=0;labelBackgroundColor=none;strokeWidth=1;fontFamily=Verdana;fontSize=12;align=center;" parent="1" vertex="1">
          <mxGeometry x="364" y="298" width="75" height="50" as="geometry" />
        </mxCell>
        <mxCell id="0iVfeRO4rjy1ahAFwruD-6" value="Estrato" style="ellipse;whiteSpace=wrap;html=1;rounded=0;shadow=1;comic=0;labelBackgroundColor=none;strokeWidth=1;fontFamily=Verdana;fontSize=12;align=center;" parent="1" vertex="1">
          <mxGeometry x="525" y="116" width="75" height="50" as="geometry" />
        </mxCell>
        <mxCell id="0iVfeRO4rjy1ahAFwruD-7" value="Educacion Madre" style="ellipse;whiteSpace=wrap;html=1;rounded=0;shadow=1;comic=0;labelBackgroundColor=none;strokeWidth=1;fontFamily=Verdana;fontSize=12;align=center;" parent="1" vertex="1">
          <mxGeometry x="635" y="5" width="75" height="50" as="geometry" />
        </mxCell>
        <mxCell id="0iVfeRO4rjy1ahAFwruD-8" value="Educacion Padre" style="ellipse;whiteSpace=wrap;html=1;rounded=0;shadow=1;comic=0;labelBackgroundColor=none;strokeWidth=1;fontFamily=Verdana;fontSize=12;align=center;" parent="1" vertex="1">
          <mxGeometry x="773" y="5" width="75" height="50" as="geometry" />
        </mxCell>
        <mxCell id="0iVfeRO4rjy1ahAFwruD-10" value="Computador" style="ellipse;whiteSpace=wrap;html=1;rounded=0;shadow=1;comic=0;labelBackgroundColor=none;strokeWidth=1;fontFamily=Verdana;fontSize=12;align=center;" parent="1" vertex="1">
          <mxGeometry x="780" y="384" width="75" height="50" as="geometry" />
        </mxCell>
        <mxCell id="0iVfeRO4rjy1ahAFwruD-11" value="Internet" style="ellipse;whiteSpace=wrap;html=1;rounded=0;shadow=1;comic=0;labelBackgroundColor=none;strokeWidth=1;fontFamily=Verdana;fontSize=12;align=center;" parent="1" vertex="1">
          <mxGeometry x="488" y="384" width="75" height="50" as="geometry" />
        </mxCell>
        <mxCell id="0iVfeRO4rjy1ahAFwruD-12" value="Estudia&amp;nbsp; otro Municipio" style="ellipse;whiteSpace=wrap;html=1;rounded=0;shadow=1;comic=0;labelBackgroundColor=none;strokeWidth=1;fontFamily=Verdana;fontSize=12;align=center;" parent="1" vertex="1">
          <mxGeometry x="208" y="502" width="75" height="50" as="geometry" />
        </mxCell>
        <mxCell id="0iVfeRO4rjy1ahAFwruD-13" value="Presenta otro Municipio" style="ellipse;whiteSpace=wrap;html=1;rounded=0;shadow=1;comic=0;labelBackgroundColor=none;strokeWidth=1;fontFamily=Verdana;fontSize=12;align=center;" parent="1" vertex="1">
          <mxGeometry x="51" y="502" width="75" height="50" as="geometry" />
        </mxCell>
        <mxCell id="0iVfeRO4rjy1ahAFwruD-14" value="Puntaje" style="ellipse;whiteSpace=wrap;html=1;rounded=0;shadow=1;comic=0;labelBackgroundColor=none;strokeWidth=1;fontFamily=Verdana;fontSize=12;align=center;" parent="1" vertex="1">
          <mxGeometry x="635" y="713" width="75" height="50" as="geometry" />
        </mxCell>
        <mxCell id="0iVfeRO4rjy1ahAFwruD-15" value="" style="endArrow=classic;html=1;rounded=0;exitX=0.5;exitY=1;exitDx=0;exitDy=0;entryX=0.5;entryY=0;entryDx=0;entryDy=0;" parent="1" source="0iVfeRO4rjy1ahAFwruD-7" target="0iVfeRO4rjy1ahAFwruD-6" edge="1">
          <mxGeometry width="50" height="50" relative="1" as="geometry">
            <mxPoint x="560.5" y="15" as="sourcePoint" />
            <mxPoint x="680.5" y="220" as="targetPoint" />
          </mxGeometry>
        </mxCell>
        <mxCell id="0iVfeRO4rjy1ahAFwruD-17" value="" style="endArrow=classic;html=1;rounded=0;exitX=0.5;exitY=1;exitDx=0;exitDy=0;entryX=0.5;entryY=0;entryDx=0;entryDy=0;" parent="1" source="0iVfeRO4rjy1ahAFwruD-8" target="0iVfeRO4rjy1ahAFwruD-6" edge="1">
          <mxGeometry width="50" height="50" relative="1" as="geometry">
            <mxPoint x="674" y="-49" as="sourcePoint" />
            <mxPoint x="515" y="5" as="targetPoint" />
          </mxGeometry>
        </mxCell>
        <mxCell id="0iVfeRO4rjy1ahAFwruD-18" value="" style="endArrow=classic;html=1;rounded=0;exitX=0.5;exitY=1;exitDx=0;exitDy=0;entryX=0.5;entryY=0;entryDx=0;entryDy=0;" parent="1" source="9-PVz-duP1QArUiXDuFB-10" target="0iVfeRO4rjy1ahAFwruD-12" edge="1">
          <mxGeometry width="50" height="50" relative="1" as="geometry">
            <mxPoint x="117" y="155" as="sourcePoint" />
            <mxPoint x="128" y="372" as="targetPoint" />
          </mxGeometry>
        </mxCell>
        <mxCell id="0iVfeRO4rjy1ahAFwruD-19" value="" style="endArrow=classic;html=1;rounded=0;exitX=0.5;exitY=1;exitDx=0;exitDy=0;entryX=0.5;entryY=0;entryDx=0;entryDy=0;" parent="1" source="9-PVz-duP1QArUiXDuFB-10" target="0iVfeRO4rjy1ahAFwruD-3" edge="1">
          <mxGeometry width="50" height="50" relative="1" as="geometry">
            <mxPoint x="127" y="165" as="sourcePoint" />
            <mxPoint x="138" y="382" as="targetPoint" />
          </mxGeometry>
        </mxCell>
        <mxCell id="0iVfeRO4rjy1ahAFwruD-20" value="" style="endArrow=classic;html=1;rounded=0;exitX=0.5;exitY=1;exitDx=0;exitDy=0;entryX=0.5;entryY=0;entryDx=0;entryDy=0;" parent="1" source="0iVfeRO4rjy1ahAFwruD-6" target="0iVfeRO4rjy1ahAFwruD-11" edge="1">
          <mxGeometry width="50" height="50" relative="1" as="geometry">
            <mxPoint x="814" y="-49" as="sourcePoint" />
            <mxPoint x="558" y="69" as="targetPoint" />
          </mxGeometry>
        </mxCell>
        <mxCell id="0iVfeRO4rjy1ahAFwruD-21" value="" style="endArrow=classic;html=1;rounded=0;exitX=0.5;exitY=1;exitDx=0;exitDy=0;entryX=0.5;entryY=0;entryDx=0;entryDy=0;" parent="1" source="0iVfeRO4rjy1ahAFwruD-6" target="0iVfeRO4rjy1ahAFwruD-10" edge="1">
          <mxGeometry width="50" height="50" relative="1" as="geometry">
            <mxPoint x="824" y="-39" as="sourcePoint" />
            <mxPoint x="568" y="79" as="targetPoint" />
          </mxGeometry>
        </mxCell>
        <mxCell id="0iVfeRO4rjy1ahAFwruD-22" value="" style="endArrow=classic;html=1;rounded=0;exitX=0.5;exitY=1;exitDx=0;exitDy=0;entryX=0.5;entryY=0;entryDx=0;entryDy=0;" parent="1" source="0iVfeRO4rjy1ahAFwruD-3" target="0iVfeRO4rjy1ahAFwruD-1" edge="1">
          <mxGeometry width="50" height="50" relative="1" as="geometry">
            <mxPoint x="839" y="425" as="sourcePoint" />
            <mxPoint x="583" y="543" as="targetPoint" />
          </mxGeometry>
        </mxCell>
        <mxCell id="tyjUWhddJ78Q3pB3OWcM-1" value="" style="endArrow=classic;html=1;rounded=0;exitX=0.5;exitY=1;exitDx=0;exitDy=0;entryX=0.5;entryY=0;entryDx=0;entryDy=0;" parent="1" source="0iVfeRO4rjy1ahAFwruD-3" target="0iVfeRO4rjy1ahAFwruD-12" edge="1">
          <mxGeometry width="50" height="50" relative="1" as="geometry">
            <mxPoint x="125" y="152" as="sourcePoint" />
            <mxPoint x="339" y="245" as="targetPoint" />
          </mxGeometry>
        </mxCell>
        <mxCell id="tyjUWhddJ78Q3pB3OWcM-6" value="" style="endArrow=classic;html=1;rounded=0;exitX=0.5;exitY=1;exitDx=0;exitDy=0;entryX=0.5;entryY=0;entryDx=0;entryDy=0;" parent="1" source="0iVfeRO4rjy1ahAFwruD-6" target="0iVfeRO4rjy1ahAFwruD-3" edge="1">
          <mxGeometry width="50" height="50" relative="1" as="geometry">
            <mxPoint x="558" y="119" as="sourcePoint" />
            <mxPoint x="558" y="175" as="targetPoint" />
          </mxGeometry>
        </mxCell>
        <mxCell id="tyjUWhddJ78Q3pB3OWcM-9" value="" style="endArrow=classic;html=1;rounded=0;exitX=0.5;exitY=1;exitDx=0;exitDy=0;entryX=0.5;entryY=0;entryDx=0;entryDy=0;" parent="1" source="0iVfeRO4rjy1ahAFwruD-11" target="0iVfeRO4rjy1ahAFwruD-14" edge="1">
          <mxGeometry width="50" height="50" relative="1" as="geometry">
            <mxPoint x="611" y="190" as="sourcePoint" />
            <mxPoint x="392" y="316" as="targetPoint" />
          </mxGeometry>
        </mxCell>
        <mxCell id="tyjUWhddJ78Q3pB3OWcM-10" value="" style="endArrow=classic;html=1;rounded=0;exitX=0.5;exitY=1;exitDx=0;exitDy=0;entryX=0.5;entryY=0;entryDx=0;entryDy=0;" parent="1" source="0iVfeRO4rjy1ahAFwruD-10" target="0iVfeRO4rjy1ahAFwruD-14" edge="1">
          <mxGeometry width="50" height="50" relative="1" as="geometry">
            <mxPoint x="568" y="129" as="sourcePoint" />
            <mxPoint x="349" y="255" as="targetPoint" />
          </mxGeometry>
        </mxCell>
        <mxCell id="tyjUWhddJ78Q3pB3OWcM-11" value="" style="endArrow=classic;html=1;rounded=0;entryX=0.5;entryY=0;entryDx=0;entryDy=0;exitX=0.5;exitY=1;exitDx=0;exitDy=0;" parent="1" source="0iVfeRO4rjy1ahAFwruD-6" target="0iVfeRO4rjy1ahAFwruD-14" edge="1">
          <mxGeometry width="50" height="50" relative="1" as="geometry">
            <mxPoint x="587" y="111" as="sourcePoint" />
            <mxPoint x="554" y="191" as="targetPoint" />
          </mxGeometry>
        </mxCell>
        <mxCell id="tyjUWhddJ78Q3pB3OWcM-12" value="" style="endArrow=classic;html=1;rounded=0;exitX=0.5;exitY=1;exitDx=0;exitDy=0;entryX=0.5;entryY=0;entryDx=0;entryDy=0;" parent="1" source="0iVfeRO4rjy1ahAFwruD-3" target="0iVfeRO4rjy1ahAFwruD-14" edge="1">
          <mxGeometry width="50" height="50" relative="1" as="geometry">
            <mxPoint x="568" y="129" as="sourcePoint" />
            <mxPoint x="564" y="201" as="targetPoint" />
          </mxGeometry>
        </mxCell>
        <mxCell id="tyjUWhddJ78Q3pB3OWcM-13" value="" style="endArrow=classic;html=1;rounded=0;exitX=0.5;exitY=1;exitDx=0;exitDy=0;entryX=0.5;entryY=0;entryDx=0;entryDy=0;" parent="1" source="9-PVz-duP1QArUiXDuFB-10" target="0iVfeRO4rjy1ahAFwruD-14" edge="1">
          <mxGeometry width="50" height="50" relative="1" as="geometry">
            <mxPoint x="578" y="139" as="sourcePoint" />
            <mxPoint x="574" y="211" as="targetPoint" />
          </mxGeometry>
        </mxCell>
        <mxCell id="tyjUWhddJ78Q3pB3OWcM-15" value="" style="endArrow=classic;html=1;rounded=0;exitX=0.5;exitY=1;exitDx=0;exitDy=0;entryX=0.5;entryY=0;entryDx=0;entryDy=0;" parent="1" source="0iVfeRO4rjy1ahAFwruD-13" target="0iVfeRO4rjy1ahAFwruD-14" edge="1">
          <mxGeometry width="50" height="50" relative="1" as="geometry">
            <mxPoint x="598" y="159" as="sourcePoint" />
            <mxPoint x="594" y="231" as="targetPoint" />
          </mxGeometry>
        </mxCell>
        <mxCell id="tyjUWhddJ78Q3pB3OWcM-16" value="" style="endArrow=classic;html=1;rounded=0;exitX=0.5;exitY=1;exitDx=0;exitDy=0;entryX=0.5;entryY=0;entryDx=0;entryDy=0;" parent="1" source="0iVfeRO4rjy1ahAFwruD-1" target="0iVfeRO4rjy1ahAFwruD-14" edge="1">
          <mxGeometry width="50" height="50" relative="1" as="geometry">
            <mxPoint x="608" y="169" as="sourcePoint" />
            <mxPoint x="604" y="241" as="targetPoint" />
          </mxGeometry>
        </mxCell>
      </root>
    </mxGraphModel>
  </diagram>
</mxfile>
